<?xml version="1.0" encoding="utf-8"?>
<!-- Generator: Adobe Illustrator 16.0.0, SVG Export Plug-In . SVG Version: 6.00 Build 0)  -->
<svg version="1.1" id="鲁班客服" xmlns="http://www.w3.org/2000/svg" xmlns:xlink="http://www.w3.org/1999/xlink" viewBox="0.5 0.5 1135.251 320" enable-background="new 0.5 0.5 1135.251 320"
	 xml:space="preserve">
<path id="_x30_2" fill="#EFEFEF" d="M254.716,90.751c16.113,18.316,25.785,41.612,25.785,67.02
	c0,51.835-40.163,95.032-93.417,104.701c-6.177-4.983-14.029-7.972-22.583-7.972s-16.406,2.988-22.583,7.972
	c-22.115-4.016-41.969-13.817-57.63-27.614c16.757,19.048,40.492,32.687,67.631,37.614c6.176-4.983,14.028-7.972,22.582-7.972
	s16.406,2.988,22.583,7.972c53.254-9.669,93.417-52.866,93.417-104.701C290.5,137.472,276.754,110.172,254.716,90.751z"/>
<path id="_x30_1" fill-rule="evenodd" clip-rule="evenodd" fill="#FFFFFF" d="M156.872,36.5c0,0,19.975,21.458,46.976,27.987
	c19.402,4.691,36.816,13.881,50.868,26.264c16.113,18.316,25.785,41.612,25.785,67.02c0,51.835-40.163,95.032-93.417,104.701
	c-6.177-4.983-14.029-7.972-22.583-7.972s-16.406,2.988-22.583,7.972c-22.115-4.016-41.969-13.817-57.63-27.614
	C68.163,216.527,58.5,193.189,58.5,167.771c0-39.461,22.884-74.684,57.886-92.39C145.131,60.84,156.872,36.5,156.872,36.5z
	 M164.5,191.5v-38H192c4.143,0,7.5-3.358,7.5-7.5v-1c0-4.143-3.357-7.5-7.5-7.5h-27.5h-16v16v38v16h16H192
	c4.143,0,7.5-3.358,7.5-7.5v-1c0-4.143-3.357-7.5-7.5-7.5H164.5z M214.086,172.5c7.585-6.329,12.414-15.85,12.414-26.5v-1
	c0-19.054-15.446-34.5-34.5-34.5h-43.5v16H192c10.217,0,18.5,8.282,18.5,18.5v1c0,10.217-8.283,18.5-18.5,18.5h-11.5v16H192
	c10.217,0,18.5,8.282,18.5,18.5v1c0,10.217-8.283,18.5-18.5,18.5h-50.02c1.584,2.269,2.52,5.023,2.52,8s-0.936,5.731-2.52,8H192
	c19.054,0,34.5-15.446,34.5-34.5v-1C226.5,188.349,221.671,178.828,214.086,172.5z M138.5,226.5c0-4.418-3.582-8-8-8s-8,3.582-8,8
	s3.582,8,8,8S138.5,230.918,138.5,226.5z M138.419,217.5h0.081v-107h-16v107h0.081c2.114-1.862,4.881-3,7.919-3
	C133.539,214.5,136.306,215.638,138.419,217.5z M319.524,128.677C311.186,56.523,249.89,0.5,175.5,0.5h-2
	c-74.39,0-135.685,56.023-144.023,128.177C16.731,129.68,0.5,135.08,0.5,156.088c0,24.12,0,2.572,0,27.441
	c0,22.908,21.462,23.799,36,27.441c6.104,1.529,8-3.92,8-9.719c0-3.386,0-27.373,0-46.752c0-3.086,0-6.054,0-8.805
	C44.5,74.343,102.343,16.5,173.696,16.5h1.609c71.353,0,129.195,57.843,129.195,129.195c0,5.016,0,10.756,0,16.609
	c0,65.771-49.148,120.064-112.722,128.154c-3.465-5.949-9.896-9.959-17.278-9.959c-11.046,0-20,8.954-20,20s8.954,20,20,20
	c9.001,0,16.609-5.947,19.12-14.125c55.061-6.864,100.527-44.602,118.547-95.342c0.113-0.023,0.218-0.033,0.333-0.063
	c14.539-3.643,36-4.533,36-27.441c0-24.869,0-3.321,0-27.441C348.5,135.08,332.27,129.68,319.524,128.677z M438.251,62l-6,5.25
	l-24.75,21l-4.5,4.5c-4.5-3.492-10.758-7.5-18.75-12c15-9.996,29.742-23.25,44.25-39.75c2.496-3,3.996-4.5,4.5-4.5
	c15.492,1.008,24.492,2.004,27,3c0,0.504-0.75,1.254-2.25,2.25c-1.5,2.004-3,3.75-4.5,5.25L438.251,62z M558.251,146h-172.5v-17.25
	h172.5V146z M429.251,124.25h-21.75V95l21.75-19.5V124.25z M436.751,212.75h-23.25V152h23.25V212.75z M435.251,83V71l3.75-3.75h72
	V83h-27v6h27v14.25h-27v5.25h27l0.75,15.75h-75.75l-0.75-15.75h26.25v-5.25h-26.25V89h26.25v-6H435.251z M503.501,167h-60.75v-15
	h60.75V167z M442.751,172.25h60.75v14.25h-60.75V172.25z M442.751,191.75h60.75v15h-60.75V191.75z M520.751,47
	c-3.504,5.004-8.25,10.5-14.25,16.5h-27l3-1.5h-36.75l15-15H520.751z M509.501,152h24v60.75h-24V152z M540.251,67.25v57h-22.5
	l-0.75-57H540.251z M598.751,125h-18.75v-19.5h18.75V68.75h-19.5V48.5h62.25V68h-20.25v37.5h6.75l-1.5,19.5h-5.25v40.5
	c6.996-0.996,14.742-3,23.25-6v6.75l-11.25,16.5c-9.504,3.504-22.5,8.25-39,14.25l-9,3c-4.008-12-6.258-20.496-6.75-25.5
	c5.496-0.996,12.246-2.496,20.25-4.5V125z M662.501,37.25c16.992,0,25.242,0.75,24.75,2.25c0,0.504-0.258,1.254-0.75,2.25
	c-1.008,3-1.5,6.258-1.5,9.75v75.75c-0.504,32.004-12.258,60.504-35.25,85.5c-9-6.504-16.758-11.004-23.25-13.5
	c24.492-19.992,36.492-45.492,36-76.5V37.25z M635.501,105.5c0.492-4.5,0.75-7.992,0.75-10.5V74h21v19.5
	c0,16.008-1.5,31.254-4.5,45.75l-20.25-3c0-2.496,0.492-6.246,1.5-11.25L635.501,105.5z M703.751,180.5v-51.75h-12V108.5h12V68.75
	h-12v-19.5h58.5v19.5h-22.5v39.75h21.75v20.25h-21.75v51.75h27v20.25h-75V180.5H703.751z M802.001,158c-10.5,3-18,4.758-22.5,5.25
	c-3-7.992-7.5-15.246-13.5-21.75c25.992-1.992,45.996-5.742,60-11.25c6,6,12.75,11.004,20.25,15c-3.504,2.508-13.758,5.508-30.75,9
	L802.001,158z M868.751,35c0.492,2.004,1.242,7.254,2.25,15.75h64.5v40.5h-24v-21h-111.75v22.5h-24.75V51.5h68.25
	c-1.008-4.992-2.25-9.75-3.75-14.25L868.751,35z M850.001,77.75c-1.5,2.004-2.508,3.504-3,4.5
	c-8.004,11.508-16.758,21.75-26.25,30.75c-7.008,7.008-13.758,12.75-20.25,17.25c-6-6.492-12-11.742-18-15.75
	c19.5-12.492,32.742-24.75,39.75-36.75H850.001z M826.751,212h-24.75v-46.5l25.5-7.5L826.751,212z M833.501,127.25
	c-4.5-4.992-7.254-7.992-8.25-9l10.5-11.25l8.25,0.75c1.992,2.508,5.496,5.508,10.5,9c6.996,4.5,14.742,8.004,23.25,10.5
	c9.492,2.508,20.742,4.5,33.75,6c12.492,1.008,23.496,1.254,33,0.75c-2.004,5.508-4.5,12.258-7.5,20.25l-2.25,6.75
	c-3.504-0.492-11.754-1.746-24.75-3.75l-14.25-3c-15.504-2.496-29.508-6.492-42-12C846.251,138.254,839.501,133.25,833.501,127.25z
	 M877.001,173h-42l-0.75-16.5l6-2.25l26.25-0.75l11.25,3.75L877.001,173z M877.001,206h-42.75v-18.75h42.75V206z M841.751,101
	l13.5-18.75h54c-5.508,17.004-14.754,30-27.75,39c-7.008-1.5-13.758-4.242-20.25-8.25c0.996-0.492,4.5-4.5,10.5-12H841.751z
	 M884.501,173l0.75-14.25l24.75,5.25v48h-25.5v-6v-18.75V173z M995.501,83h8.25v18.75h-8.25V122h8.25v19.5h-8.25
	c0.492,29.004-5.508,51.996-18,69c-5.004-6-11.004-10.758-18-14.25c0.492-0.504,0.996-1.254,1.5-2.25
	c8.496-12,12.75-27.75,12.75-47.25V42.5h30v21h-8.25V83z M1011.251,83V42.5h22.5V191c0,6-2.004,9.75-6,11.25
	c-3,1.992-11.004,3.246-24,3.75c-1.5-7.008-4.008-14.25-7.5-21.75c11.496,2.004,16.5-0.492,15-7.5v-75V83z M1065.251,129.5v57.75v9
	v13.5h-22.5V42.5h23.25l-0.75,21V110V129.5z M1109.501,169.25c7.5,6.504,16.242,11.754,26.25,15.75
	c-4.008,5.004-7.758,10.992-11.25,18c-1.5,3.492-2.508,5.25-3,5.25c-4.5-2.508-10.5-7.008-18-13.5c-3-2.004-5.25-3.75-6.75-5.25
	c-7.008,7.992-13.758,14.496-20.25,19.5c-0.504,0-1.5-1.008-3-3l-1.5-2.25V182l9.75-10.5c-7.008-9.492-10.758-21.246-11.25-35.25
	h19.5c0,5.004,1.746,10.5,5.25,16.5L1109.501,169.25z M1071.251,129.5V110h54c-1.008,21.504-5.508,38.754-13.5,51.75l-14.25-16.5
	c1.5-2.496,2.742-7.746,3.75-15.75H1071.251z M1072.001,42.5h49.5c0,2.508,0,5.754,0,9.75c-0.504,4.5-0.75,8.004-0.75,10.5v9.75
	c0,13.5-2.508,22.008-7.5,25.5c-3,3.504-13.254,5.004-30.75,4.5l-1.5-0.75c-0.504-4.992-2.004-9.75-4.5-14.25
	c0-0.492-0.504-1.242-1.5-2.25c-1.008-1.992-1.5-3.492-1.5-4.5c10.5,0.504,16.746,0.258,18.75-0.75c2.496-0.492,3.75-2.496,3.75-6
	V63.5h-24V42.5z M390.822,244.088h3.313V295.5h-3.313V244.088z M470.816,295.5h-3.313v-7.345h-0.145
	c-2.304,4.393-7.128,8.497-15.553,8.497c-16.922,0-16.922-10.801-16.922-15.266v-22.754h3.313v22.609
	c0,7.489,2.809,12.529,13.682,12.529s15.625-6.768,15.625-13.609v-21.529h3.313V295.5z M511.277,244.088h3.312v22.394h0.145
	c2.16-4.032,7.272-9.001,16.345-9.001c11.233,0,19.658,7.777,19.658,19.514c0,10.441-6.697,19.658-19.658,19.658
	c-9.505,0-14.617-4.824-16.345-9.217h-0.145v8.064h-3.312V244.088z M547.423,276.922c0-11.232-7.921-16.561-16.417-16.561
	c-7.489,0-16.85,4.104-16.85,17.064c0,6.553,3.456,16.346,17.281,16.346C540.582,293.771,547.423,287.508,547.423,276.922z
	 M588.531,270.01c1.224-9.289,5.977-12.529,17.137-12.529c10.729,0,16.922,2.521,16.922,10.801v20.666c0,2.736,0,4.393,2.448,4.393
	c1.08,0,2.16-0.216,3.24-0.576v2.88c-1.008,0.36-2.376,0.576-4.032,0.576c-4.536,0-4.536-3.168-4.536-8.064h-0.145
	c-4.104,7.561-12.745,8.497-17.569,8.497c-3.168,0-15.121,0-15.121-11.233c0-7.561,6.408-10.153,13.897-10.585l12.889-0.863
	c3.816-0.289,5.616-0.721,5.616-5.257c0-4.969-2.808-8.353-13.681-8.353c-9.721,0-12.745,3.023-13.754,9.648H588.531z
	 M619.278,274.906h-0.144c-0.792,0.864-2.736,1.729-5.904,1.944l-12.457,0.864c-6.193,0.432-10.585,2.16-10.585,7.704
	c0,7.489,7.561,8.353,12.024,8.353c7.345,0,17.065-3.313,17.065-12.097V274.906z M664.13,258.633h3.313v7.345h0.144
	c2.305-4.393,7.129-8.497,15.554-8.497c16.922,0,16.922,10.801,16.922,15.266V295.5h-3.313v-22.609
	c0-7.489-2.809-12.529-13.682-12.529s-15.625,6.768-15.625,13.609V295.5h-3.313V258.633z M740.522,244.088h3.313v34.131
	l26.282-19.586h4.896l-18.649,13.896L776.74,295.5h-4.536l-18.434-20.882l-9.937,7.345V295.5h-3.313V244.088z M816.842,261.514
	h-8.641v-2.881h8.641v-5.545c0-5.76,1.656-9.433,9.36-9.433c1.585,0,3.601,0.216,5.689,0.433v2.88
	c-1.585-0.288-3.673-0.433-5.257-0.433c-1.656,0-6.48,0-6.48,5.545v6.553h10.656v2.881h-10.656V295.5h-3.313V261.514z
	 M868.753,288.299h3.744v7.201h-3.744V288.299z M949.323,270.226c-0.432-4.681-6.769-9.864-15.625-9.864
	c-11.665,0-17.497,8.28-17.497,17.064c0,5.977,4.176,16.346,17.497,16.346c7.417,0,14.474-3.527,16.129-11.16h3.313
	c-1.944,9.648-10.152,14.041-19.441,14.041c-12.097,0-20.81-7.777-20.81-19.227c0-12.961,9.505-19.945,20.81-19.945
	s18.506,6.48,18.938,12.745H949.323z M1010.089,257.48c13.177,0,20.81,9.217,20.81,19.586s-7.633,19.586-20.81,19.586
	c-13.178,0-20.81-9.217-20.81-19.586S996.911,257.48,1010.089,257.48z M1010.089,293.771c11.665,0,17.497-8.28,17.497-16.705
	s-5.832-16.705-17.497-16.705s-17.498,8.28-17.498,16.705S998.424,293.771,1010.089,293.771z M1069.198,258.633h3.313v6.265h0.144
	c2.881-4.753,8.354-7.417,14.186-7.417c9.073,0,12.602,3.961,14.113,8.568c2.664-5.615,7.561-8.568,14.257-8.568
	c10.585,0,15.338,4.752,15.338,13.033V295.5h-3.313v-23.906c0-6.049-3.313-11.232-11.953-11.232c-9.001,0-13.753,4.68-13.753,12.457
	V295.5h-3.313v-24.555c0-6.48-3.456-10.584-11.953-10.584c-8.064,0-13.753,4.68-13.753,13.177V295.5h-3.313V258.633z"/>
</svg>
