<?xml version="1.0" encoding="utf-8"?>
<!-- Generator: Adobe Illustrator 16.0.0, SVG Export Plug-In . SVG Version: 6.00 Build 0)  -->
<!DOCTYPE svg PUBLIC "-//W3C//DTD SVG 1.1//EN" "http://www.w3.org/Graphics/SVG/1.1/DTD/svg11.dtd">
<svg version="1.1" id="鲁班客服" xmlns="http://www.w3.org/2000/svg" xmlns:xlink="http://www.w3.org/1999/xlink" viewBox="0.5 0.5 348 320" enable-background="new 0.5 0.5 348 320" xml:space="preserve">
<path id="f_x5F_01_1_" fill="#EFEFEF" d="M254.716,90.751c16.112,18.316,25.784,41.612,25.784,67.02
	c0,51.835-40.163,95.032-93.417,104.701c-6.177-4.983-14.029-7.972-22.583-7.972s-16.406,2.988-22.583,7.972
	c-22.115-4.016-41.969-13.817-57.63-27.615c16.757,19.048,40.492,32.687,67.631,37.615c6.176-4.983,14.028-7.972,22.582-7.972
	s16.406,2.988,22.583,7.972c53.254-9.669,93.417-52.866,93.417-104.701C290.5,137.472,276.754,110.172,254.716,90.751z"/>
<path id="f" fill-rule="evenodd" clip-rule="evenodd" fill="#FFFFFF" d="M156.872,36.5c0,0,19.975,21.458,46.976,27.987
	c19.402,4.691,36.815,13.881,50.868,26.264c16.112,18.316,25.784,41.612,25.784,67.02c0,51.835-40.163,95.032-93.417,104.701
	c-6.177-4.983-14.029-7.972-22.583-7.972s-16.406,2.988-22.583,7.972c-22.115-4.016-41.969-13.817-57.63-27.615
	C68.163,216.527,58.5,193.189,58.5,167.771c0-39.461,22.884-74.684,57.886-92.39C145.131,60.84,156.872,36.5,156.872,36.5z
	 M164.5,191.5v-38H192c4.143,0,7.5-3.358,7.5-7.5v-1c0-4.143-3.357-7.5-7.5-7.5h-27.5h-16v16v38v16h16H192
	c4.143,0,7.5-3.358,7.5-7.5v-1c0-4.143-3.357-7.5-7.5-7.5H164.5z M214.086,172.5c7.585-6.329,12.414-15.85,12.414-26.5v-1
	c0-19.054-15.446-34.5-34.5-34.5h-43.5v16H192c10.217,0,18.5,8.282,18.5,18.5v1c0,10.217-8.283,18.5-18.5,18.5h-11.5v16H192
	c10.217,0,18.5,8.282,18.5,18.5v1c0,10.217-8.283,18.5-18.5,18.5h-50.02c1.584,2.269,2.52,5.023,2.52,8s-0.936,5.731-2.52,8H192
	c19.054,0,34.5-15.446,34.5-34.5v-1C226.5,188.349,221.671,178.828,214.086,172.5z M138.5,226.5c0-4.418-3.582-8-8-8s-8,3.582-8,8
	s3.582,8,8,8S138.5,230.918,138.5,226.5z M138.419,217.5h0.081v-107h-16v107h0.081c2.114-1.862,4.881-3,7.919-3
	C133.539,214.5,136.306,215.638,138.419,217.5z M319.523,128.677C311.185,56.523,249.89,0.5,175.5,0.5h-2
	c-74.39,0-135.685,56.023-144.023,128.177C16.731,129.68,0.5,135.08,0.5,156.088c0,24.12,0,2.572,0,27.441
	c0,22.908,21.462,23.799,36,27.441c6.104,1.529,8-3.92,8-9.719c0-3.386,0-27.373,0-46.752c0-3.086,0-6.054,0-8.805
	C44.5,74.343,102.343,16.5,173.696,16.5h1.609c71.353,0,129.195,57.843,129.195,129.195c0,5.016,0,10.756,0,16.609
	c0,65.771-49.148,120.064-112.722,128.155c-3.465-5.95-9.896-9.959-17.278-9.959c-11.046,0-20,8.954-20,20s8.954,20,20,20
	c9.001,0,16.609-5.947,19.12-14.125c55.061-6.864,100.528-44.602,118.547-95.342c0.113-0.024,0.217-0.033,0.333-0.063
	c14.539-3.643,36-4.533,36-27.441c0-24.869,0-3.321,0-27.441C348.5,135.08,332.269,129.68,319.523,128.677z"/>
</svg>
